<svg width="153" height="56" viewBox="0 0 153 56" fill="none" xmlns="http://www.w3.org/2000/svg">
<path d="M15.6684 44.4305C13.057 44.4305 10.79 43.9139 8.86729 42.8808C6.94461 41.8477 5.45238 40.3699 4.3906 38.4472C3.35752 36.4958 2.84098 34.1857 2.84098 31.5169V15.4611C2.84098 14.8298 3.01316 14.3419 3.35752 13.9976C3.73057 13.6245 4.23277 13.438 4.8641 13.438C5.49542 13.438 5.99762 13.6245 6.37067 13.9976C6.74373 14.3419 6.93026 14.8298 6.93026 15.4611V31.6461C6.93026 34.6592 7.69072 36.9836 9.21165 38.6194C10.7613 40.2551 12.9422 41.0729 15.7545 41.0729C18.5668 41.0729 20.7621 40.2407 22.3404 38.5763C23.9187 36.9119 24.7079 34.6018 24.7079 31.6461V15.4611C24.7079 14.8298 24.8944 14.3419 25.2675 13.9976C25.6405 13.6245 26.1427 13.438 26.774 13.438C27.4054 13.438 27.8932 13.6245 28.2376 13.9976C28.5819 14.3419 28.7541 14.8298 28.7541 15.4611V31.5169C28.7541 34.0996 28.2232 36.3667 27.1615 38.318C26.0997 40.2694 24.5788 41.776 22.5987 42.8378C20.6473 43.8996 18.3372 44.4305 15.6684 44.4305ZM38.067 44.4305C37.4644 44.4305 36.9765 44.2583 36.6035 43.9139C36.2591 43.5409 36.0869 43.0387 36.0869 42.4073V15.4611C36.0869 14.8298 36.2591 14.3419 36.6035 13.9976C36.9765 13.6245 37.4644 13.438 38.067 13.438C38.6983 13.438 39.2005 13.6245 39.5736 13.9976C39.9466 14.3419 40.1332 14.8298 40.1332 15.4611V42.4073C40.1332 43.0387 39.9466 43.5409 39.5736 43.9139C39.2005 44.2583 38.6983 44.4305 38.067 44.4305Z" fill="url(#paint0_linear_2_11)"/>
<rect x="50.407" y="13.0465" width="102.593" height="30.8372" rx="15.4186" fill="#D9D9D9"/>
<path d="M66.3664 36.0116C65.4049 36.0116 64.6585 35.7586 64.1272 35.2525C63.5958 34.7465 63.3302 34.038 63.3302 33.1271V25.5364C63.3302 24.6509 63.5832 23.9614 64.0892 23.468C64.6079 22.9746 65.3227 22.7279 66.2336 22.7279H70.6172C72.0848 22.7279 73.217 23.0378 74.0141 23.6577C74.8111 24.2776 75.2096 25.1759 75.2096 26.3524C75.2096 26.9344 75.0388 27.4784 74.6972 27.9844C74.3556 28.4778 73.9129 28.851 73.3689 29.1041V29.123C73.9761 29.3634 74.4695 29.7493 74.849 30.2806C75.2412 30.7993 75.4373 31.3623 75.4373 31.9695C75.4373 33.2347 75.0262 34.2278 74.2038 34.9489C73.3942 35.6574 72.2745 36.0116 70.8449 36.0116H66.3664ZM70.6172 28.2122C71.2624 28.2122 71.7622 28.054 72.1164 27.7377C72.4833 27.4215 72.6667 26.966 72.6667 26.3714C72.6667 25.7895 72.4959 25.3593 72.1543 25.081C71.8128 24.8027 71.3004 24.6635 70.6172 24.6635H66.6321C66.3791 24.6635 66.1767 24.7457 66.0249 24.9102C65.8857 25.0747 65.8161 25.3024 65.8161 25.5934V28.2122H70.6172ZM70.6172 34.076C72.1354 34.076 72.8944 33.3865 72.8944 32.0075C72.8944 31.4129 72.692 30.9511 72.2872 30.6222C71.895 30.2933 71.3383 30.1288 70.6172 30.1288H65.8161V33.1461C65.8161 33.4371 65.8857 33.6648 66.0249 33.8293C66.1767 33.9937 66.3791 34.076 66.6321 34.076H70.6172ZM78.535 36.1824C78.1554 36.1824 77.8518 36.0812 77.6241 35.8788C77.3964 35.6763 77.2825 35.398 77.2825 35.0438V28.4019C77.2825 26.5675 77.8075 25.1316 78.8576 24.0942C79.9076 23.0568 81.3688 22.5381 83.2412 22.5381C84.4684 22.5381 85.5311 22.7722 86.4293 23.2402C87.3275 23.7083 88.0107 24.3852 88.4788 25.2708C88.9595 26.1563 89.1999 27.2001 89.1999 28.4019V35.0438C89.1999 35.398 89.086 35.6763 88.8583 35.8788C88.6306 36.0812 88.327 36.1824 87.9474 36.1824C87.5679 36.1824 87.258 36.0812 87.0176 35.8788C86.7899 35.6637 86.676 35.3854 86.676 35.0438V31.9506H79.8064V35.0438C79.8064 35.3854 79.6862 35.6637 79.4459 35.8788C79.2181 36.0812 78.9145 36.1824 78.535 36.1824ZM86.676 29.996V28.345C86.676 27.0799 86.385 26.131 85.8031 25.4985C85.2338 24.8533 84.3798 24.5307 83.2412 24.5307C80.9513 24.5307 79.8064 25.8021 79.8064 28.345V29.996H86.676ZM95.7238 36.2014C95.3442 36.2014 95.0406 36.1002 94.8129 35.8977C94.5851 35.6953 94.4713 35.417 94.4713 35.0628V24.6825H90.8088C90.4419 24.6825 90.1509 24.6002 89.9358 24.4358C89.7334 24.2587 89.6322 24.0183 89.6322 23.7147C89.6322 23.3984 89.7334 23.158 89.9358 22.9935C90.1383 22.8164 90.4292 22.7279 90.8088 22.7279H100.658C101.037 22.7279 101.328 22.8164 101.531 22.9935C101.733 23.158 101.834 23.3984 101.834 23.7147C101.834 24.0183 101.727 24.2587 101.512 24.4358C101.309 24.6002 101.025 24.6825 100.658 24.6825H96.9952V35.0628C96.9952 35.4043 96.875 35.6827 96.6346 35.8977C96.4069 36.1002 96.1033 36.2014 95.7238 36.2014ZM108.919 36.2014C108.539 36.2014 108.235 36.1002 108.008 35.8977C107.78 35.6953 107.666 35.417 107.666 35.0628V24.6825H104.004C103.637 24.6825 103.346 24.6002 103.131 24.4358C102.928 24.2587 102.827 24.0183 102.827 23.7147C102.827 23.3984 102.928 23.158 103.131 22.9935C103.333 22.8164 103.624 22.7279 104.004 22.7279H113.852C114.232 22.7279 114.523 22.8164 114.725 22.9935C114.928 23.158 115.029 23.3984 115.029 23.7147C115.029 24.0183 114.921 24.2587 114.706 24.4358C114.504 24.6002 114.219 24.6825 113.852 24.6825H110.19V35.0628C110.19 35.4043 110.07 35.6827 109.829 35.8977C109.602 36.1002 109.298 36.2014 108.919 36.2014ZM119.627 36.0116C118.666 36.0116 117.919 35.7586 117.388 35.2525C116.857 34.7465 116.591 34.038 116.591 33.1271V23.6767C116.591 23.3225 116.705 23.0442 116.933 22.8417C117.16 22.6393 117.464 22.5381 117.844 22.5381C118.223 22.5381 118.527 22.6456 118.754 22.8607C118.995 23.0631 119.115 23.3351 119.115 23.6767V33.1271C119.115 33.4181 119.185 33.6458 119.324 33.8103C119.476 33.9748 119.678 34.057 119.931 34.057H126.004C126.383 34.057 126.674 34.1456 126.876 34.3227C127.079 34.4871 127.18 34.7275 127.18 35.0438C127.18 35.3474 127.073 35.5878 126.857 35.7649C126.655 35.9294 126.37 36.0116 126.004 36.0116H119.627ZM131.766 36.0116C130.804 36.0116 130.058 35.7586 129.527 35.2525C128.995 34.7465 128.729 34.038 128.729 33.1271V25.5364C128.729 24.6509 128.983 23.9614 129.489 23.468C130.007 22.9746 130.722 22.7279 131.633 22.7279H137.535C137.914 22.7279 138.205 22.8164 138.408 22.9935C138.61 23.158 138.711 23.3984 138.711 23.7147C138.711 24.0183 138.604 24.2587 138.389 24.4358C138.186 24.6002 137.902 24.6825 137.535 24.6825H132.069C131.816 24.6825 131.614 24.7647 131.462 24.9292C131.323 25.0936 131.253 25.3214 131.253 25.6123V28.2501H136.092C136.472 28.2501 136.763 28.3387 136.965 28.5158C137.168 28.6802 137.269 28.9206 137.269 29.2369C137.269 29.5405 137.161 29.7809 136.946 29.958C136.744 30.1225 136.459 30.2047 136.092 30.2047H131.253V33.1271C131.253 33.4181 131.323 33.6458 131.462 33.8103C131.614 33.9748 131.816 34.057 132.069 34.057H137.952C138.332 34.057 138.623 34.1456 138.825 34.3227C139.028 34.4871 139.129 34.7275 139.129 35.0438C139.129 35.3474 139.021 35.5878 138.806 35.7649C138.604 35.9294 138.319 36.0116 137.952 36.0116H131.766Z" fill="#696969"/>
<defs>
<linearGradient id="paint0_linear_2_11" x1="22.5" y1="9.856" x2="22.5" y2="43.904" gradientUnits="userSpaceOnUse">
<stop stop-color="#84FAB0"/>
<stop offset="1" stop-color="#8FD3F4"/>
</linearGradient>
</defs>
</svg>
